<svg id="zarincard" xmlns="http://www.w3.org/2000/svg" xmlns:xlink="http://www.w3.org/1999/xlink" width="408.732" height="166" viewBox="0 0 408.732 266">
  <defs>
    <style>
      .cls-1 {
        fill: url(#linear-gradient);
      }

      .cls-2 {
        fill: url(#linear-gradient-2);
      }

      .cls-3 {
        fill: url(#linear-gradient-3);
      }

      .cls-4 {
        fill: #303030;
      }
    </style>
    <linearGradient id="linear-gradient" x1="1" y1="0.5" x2="0" y2="0.5" gradientUnits="objectBoundingBox">
      <stop offset="0" stop-color="#ffd900" stop-opacity="0.251"/>
      <stop offset="1" stop-color="#ffe422" stop-opacity="0.251"/>
    </linearGradient>
    <linearGradient id="linear-gradient-2" x1="1" y1="0.5" x2="0" y2="0.5" gradientUnits="objectBoundingBox">
      <stop offset="0" stop-color="#ffd900" stop-opacity="0.149"/>
      <stop offset="1" stop-color="#ffe422" stop-opacity="0.149"/>
    </linearGradient>
    <linearGradient id="linear-gradient-3" x1="1" y1="0.5" x2="0" y2="0.5" gradientUnits="objectBoundingBox">
      <stop offset="0" stop-color="#ffd900"/>
      <stop offset="1" stop-color="#ffe422"/>
    </linearGradient>
  </defs>
  <rect id="Rectangle_1" data-name="Rectangle 1" class="cls-1" width="360.073" height="200.041" rx="14.289" transform="translate(24.87 46.496)"/>
  <rect id="Rectangle_2" data-name="Rectangle 2" class="cls-2" width="309.252" height="171.927" rx="12.28" transform="translate(49.74 94.073)"/>
  <rect id="Rectangle_3" data-name="Rectangle 3" class="cls-3" width="408.732" height="227.073" rx="16.22"/>
  <path id="Path_1" data-name="Path 1" class="cls-4" d="M259.894,130.094V114.883a2.828,2.828,0,0,1,5.656,0v15.211a2.828,2.828,0,0,1-5.656,0Zm-12.525,0V114.883a2.829,2.829,0,1,1,5.658,0v15.211a2.829,2.829,0,1,1-5.657,0Zm-48.694-9.96V115.1a2.829,2.829,0,1,1,5.658,0v5.037a7.125,7.125,0,1,0,14.25,0v-9.362a2.829,2.829,0,1,1,5.658,0v1.282H236.5a2.829,2.829,0,1,1,0,5.658H224.232v2.423a12.781,12.781,0,1,1-25.562,0Zm-55.943.478V115.1a2.829,2.829,0,1,1,5.657,0v5.513a6.528,6.528,0,1,0,13.053,0v-5.7l-.191-15.9a2.828,2.828,0,1,1,5.656-.068l.191,15.818V120.6a12.184,12.184,0,1,1-24.366.009Zm38.654,11.962a3.158,3.158,0,0,1-.49-.146,2.978,2.978,0,0,1-.464-.249,2.513,2.513,0,0,1-.4-.327,2.986,2.986,0,0,1-.328-.405,3.1,3.1,0,0,1-.249-.464,3.3,3.3,0,0,1-.146-.49,2.733,2.733,0,0,1-.051-.525,2.639,2.639,0,0,1,.051-.517,3.373,3.373,0,0,1,.146-.5,3.579,3.579,0,0,1,.249-.456,2.552,2.552,0,0,1,.328-.4,3.1,3.1,0,0,1,.4-.336,3.234,3.234,0,0,1,.455-.24,2.746,2.746,0,0,1,.5-.155,2.629,2.629,0,0,1,1.04,0,2.5,2.5,0,0,1,.5.155,3.253,3.253,0,0,1,.456.24,3.15,3.15,0,0,1,.4.336,3.081,3.081,0,0,1,.337.4,3.4,3.4,0,0,1,.239.456,2.492,2.492,0,0,1,.147.5,2.653,2.653,0,0,1,.06.517,2.751,2.751,0,0,1-.06.525,2.429,2.429,0,0,1-.147.49,2.973,2.973,0,0,1-.239.464,3.737,3.737,0,0,1-.337.4,2.547,2.547,0,0,1-.4.327,3.416,3.416,0,0,1-.456.249,3.236,3.236,0,0,1-.5.146,2.562,2.562,0,0,1-.516.052A2.652,2.652,0,0,1,181.386,132.574Zm48.586-5.755a2.215,2.215,0,1,1,0-4.429h7.606a2.215,2.215,0,1,1,0,4.429Zm-51.867-.886a2.215,2.215,0,1,1,0-4.429h7.606a2.215,2.215,0,1,1,0,4.429Zm-3.028-8.222a2.863,2.863,0,0,1-.566-.057c-.05-.011-.1-.032-.144-.045a2.771,2.771,0,0,1-.385-.12,1.918,1.918,0,0,1-.172-.093,2.972,2.972,0,0,1-.308-.166c-.057-.038-.1-.088-.157-.13a2.993,2.993,0,0,1-.26-.214,1.493,1.493,0,0,1-.129-.155,2.51,2.51,0,0,1-.216-.262c-.039-.057-.066-.121-.1-.18a2.8,2.8,0,0,1-.162-.3c-.029-.068-.045-.143-.068-.215a2.6,2.6,0,0,1-.1-.311c-.017-.08-.018-.166-.029-.247a3.017,3.017,0,0,1-.033-.3l-.19-15.9a2.828,2.828,0,1,1,5.656-.068l.157,13.1h10.261a2.829,2.829,0,1,1,0,5.658Zm34.5-.945a2.688,2.688,0,0,1-.783-1.884,2.652,2.652,0,0,1,.783-1.876,2.743,2.743,0,0,1,3.758,0,2.678,2.678,0,0,1,.774,1.876,2.643,2.643,0,0,1-2.658,2.658,2.681,2.681,0,0,1-1.872-.774Zm51.263-8.886a2.722,2.722,0,0,1-.783-1.884,2.651,2.651,0,0,1,3.682-2.451,3.359,3.359,0,0,1,.456.241,3.022,3.022,0,0,1,.4.336,2.666,2.666,0,0,1,0,3.758,2.416,2.416,0,0,1-.4.327,3.317,3.317,0,0,1-.456.249,3.579,3.579,0,0,1-.5.147,2.728,2.728,0,0,1-.525.051,2.679,2.679,0,0,1-1.872-.774Z"/>
</svg>
